<svg width="188" height="92" viewBox="0 0 188 92" fill="none" xmlns="http://www.w3.org/2000/svg">
<path d="M55.4624 50.1982C53.0355 50.1982 51.0691 48.2363 51.0691 45.815C51.0691 43.3938 53.0355 41.4319 55.4624 41.4319C57.8893 41.4319 59.8557 43.3938 59.8557 45.815C59.8557 48.2363 57.8893 50.1982 55.4624 50.1982Z" fill="#343435"/>
<path d="M44.5554 38.861C42.1285 38.861 40.1621 36.8992 40.1621 34.4779C40.1621 32.0566 42.1285 30.0947 44.5554 30.0947C46.9823 30.0947 48.9487 32.0566 48.9487 34.4779C48.9487 36.8992 46.9823 38.861 44.5554 38.861Z" fill="#343435"/>
<path d="M32.5876 27.5256C30.1608 27.5256 28.1943 25.5637 28.1943 23.1424C28.1943 20.7212 30.1608 18.7593 32.5876 18.7593C35.0145 18.7593 36.9809 20.7212 36.9809 23.1424C36.9809 25.5637 35.0145 27.5256 32.5876 27.5256Z" fill="#343435"/>
<path d="M21.0723 16.039C18.6454 16.039 16.679 14.0771 16.679 11.6559C16.679 9.23459 18.6454 7.27271 21.0723 7.27271C23.4991 7.27271 25.4656 9.23459 25.4656 11.6559C25.4656 14.0771 23.4991 16.039 21.0723 16.039Z" fill="#343435"/>
<path d="M44.5554 61.8359C42.1285 61.8359 40.1621 59.874 40.1621 57.4527C40.1621 55.0315 42.1285 53.0696 44.5554 53.0696C46.9823 53.0696 48.9487 55.0315 48.9487 57.4527C48.9487 59.874 46.9823 61.8359 44.5554 61.8359Z" fill="#343435"/>
<path d="M32.5876 73.1711C30.1608 73.1711 28.1943 71.2092 28.1943 68.7879C28.1943 66.3667 30.1608 64.4048 32.5876 64.4048C35.0145 64.4048 36.9809 66.3667 36.9809 68.7879C36.9809 71.2092 35.0145 73.1711 32.5876 73.1711Z" fill="#343435"/>
<path d="M21.0723 84.3569C18.6454 84.3569 16.679 82.395 16.679 79.9737C16.679 77.5525 18.6454 75.5906 21.0723 75.5906C23.4991 75.5906 25.4656 77.5525 25.4656 79.9737C25.4656 82.395 23.4991 84.3569 21.0723 84.3569Z" fill="#343435"/>
<path d="M32.5873 51.7092C29.3243 51.7092 26.679 49.07 26.679 45.8146C26.679 42.5592 29.3243 39.9199 32.5873 39.9199C35.8502 39.9199 38.4956 42.5592 38.4956 45.8146C38.4956 49.07 35.8502 51.7092 32.5873 51.7092Z" fill="#343435"/>
<path d="M8.19569 53.0697C4.17978 53.0697 0.924072 49.8215 0.924072 45.8149C0.924072 41.8082 4.17978 38.5601 8.19569 38.5601C12.2116 38.5601 15.4673 41.8082 15.4673 45.8149C15.4673 49.8215 12.2116 53.0697 8.19569 53.0697Z" fill="#F82428"/>
<path d="M21.0721 40.3728C17.8092 40.3728 15.1638 37.7335 15.1638 34.4781C15.1638 31.2228 17.8092 28.5835 21.0721 28.5835C24.335 28.5835 26.9804 31.2228 26.9804 34.4781C26.9804 37.7335 24.335 40.3728 21.0721 40.3728Z" fill="#343435"/>
<path d="M9.55893 29.0371C6.29601 29.0371 3.65063 26.3978 3.65063 23.1425C3.65063 19.8871 6.29601 17.2478 9.55893 17.2478C12.8219 17.2478 15.4672 19.8871 15.4672 23.1425C15.4672 26.3978 12.8219 29.0371 9.55893 29.0371Z" fill="#343435"/>
<path d="M9.55893 74.6829C6.29601 74.6829 3.65063 72.0436 3.65063 68.7882C3.65063 65.5328 6.29601 62.8936 9.55893 62.8936C12.8219 62.8936 15.4672 65.5328 15.4672 68.7882C15.4672 72.0436 12.8219 74.6829 9.55893 74.6829Z" fill="#343435"/>
<path d="M21.0721 63.3472C17.8092 63.3472 15.1638 60.7079 15.1638 57.4525C15.1638 54.1971 17.8092 51.5579 21.0721 51.5579C24.335 51.5579 26.9804 54.1971 26.9804 57.4525C26.9804 60.7079 24.335 63.3472 21.0721 63.3472Z" fill="#343435"/>
<path d="M40.1622 91.1149C39.3135 91.1149 38.5027 90.6267 38.1362 89.8034C37.6378 88.6865 38.1398 87.3785 39.2575 86.8813C55.4855 79.6571 65.9695 63.5387 65.9695 45.8151C65.9695 28.0915 55.1695 11.4543 38.4558 4.40124C37.3272 3.92563 36.7999 2.62671 37.2767 1.50075C37.7534 0.374785 39.0553 -0.151266 40.1839 0.324342C49.0319 4.05714 56.5581 10.2418 61.9536 18.2083C67.4827 26.3747 70.4061 35.9192 70.4061 45.8133C70.4061 65.2808 58.8893 82.9864 41.065 90.9204C40.7707 91.0519 40.4637 91.1131 40.1622 91.1131" fill="#FCBF4E"/>
<path d="M83.3691 17.769V0.149902H85.8014L89.0499 9.4801H89.1005L92.3237 0.149902H94.7813V17.769H92.2497V7.05342H92.2027L89.6964 14.6271H88.4306L85.9513 7.05342H85.9008V17.769H83.3691Z" fill="#343435"/>
<path d="M96.5183 17.7683L100.46 0.14917H102.567L106.511 17.7683H103.983L103.237 13.9814H99.7921L99.0463 17.7683H96.5183ZM102.766 11.607L101.526 5.22232H101.477L100.236 11.607H102.764H102.766Z" fill="#343435"/>
<path d="M116.286 12.7441V13.8341C116.286 14.3781 116.181 14.8934 115.976 15.3798C115.77 15.868 115.484 16.3004 115.12 16.6787C114.755 17.0588 114.329 17.3597 113.843 17.5813C113.354 17.8047 112.828 17.9146 112.267 17.9146C111.786 17.9146 111.301 17.8479 110.804 17.7164C110.307 17.5831 109.861 17.3525 109.466 17.0228C109.067 16.6931 108.744 16.2679 108.485 15.7491C108.229 15.2285 108.101 14.5655 108.101 13.7566V4.05888C108.101 3.48058 108.2 2.94372 108.397 2.4501C108.596 1.95468 108.877 1.52591 109.242 1.1638C109.603 0.799886 110.038 0.515242 110.544 0.309866C111.046 0.10449 111.606 0 112.216 0C113.408 0 114.374 0.389134 115.12 1.1638C115.484 1.54212 115.77 1.99251 115.976 2.51315C116.181 3.0338 116.286 3.59768 116.286 4.20841V5.19745H113.755V4.35613C113.755 3.86071 113.614 3.43374 113.334 3.06983C113.052 2.70772 112.669 2.52576 112.193 2.52576C111.562 2.52576 111.145 2.71853 110.938 3.10586C110.732 3.495 110.627 3.98502 110.627 4.57772V13.5854C110.627 14.0971 110.739 14.5259 110.963 14.8717C111.187 15.2176 111.588 15.3924 112.165 15.3924C112.33 15.3924 112.507 15.3636 112.7 15.3059C112.89 15.2483 113.067 15.1528 113.231 15.0213C113.381 14.888 113.505 14.7078 113.603 14.4754C113.702 14.2448 113.753 13.9548 113.753 13.6107V12.7441H116.284H116.286Z" fill="#343435"/>
<path d="M118.839 17.7683V0.14917H126.38V2.52541H121.369V7.69584H125.737V10.0721H121.369V15.2443H126.38V17.7683H118.839Z" fill="#343435"/>
<path d="M128.51 17.7683V0.14917H132.256C133.711 0.14917 134.814 0.54551 135.569 1.33639C136.32 2.12907 136.696 3.24963 136.696 4.70167V12.9419C136.696 14.5921 136.295 15.81 135.493 16.5937C134.691 17.3773 133.539 17.7683 132.033 17.7683H128.51ZM131.042 2.52541V15.3938H132.209C132.92 15.3938 133.424 15.2155 133.724 14.8606C134.02 14.5075 134.17 13.9508 134.17 13.1905V4.70167C134.17 4.00808 134.029 3.47302 133.745 3.09469C133.465 2.71457 132.951 2.52541 132.209 2.52541H131.042Z" fill="#343435"/>
<path d="M139.428 4.30569C139.428 3.59768 139.552 2.97075 139.802 2.42488C140.047 1.88081 140.378 1.42682 140.793 1.06471C141.188 0.718816 141.64 0.453989 142.144 0.272033C142.647 0.0918787 143.157 0 143.668 0C144.179 0 144.69 0.0918787 145.193 0.273835C145.699 0.455791 146.156 0.718816 146.571 1.06651C146.967 1.42862 147.288 1.88261 147.537 2.42668C147.786 2.97255 147.911 3.59949 147.911 4.30749V13.6125C147.911 14.3529 147.786 14.9888 147.537 15.5167C147.288 16.0446 146.967 16.4823 146.571 16.8282C146.156 17.1903 145.699 17.4624 145.193 17.6443C144.691 17.8263 144.182 17.9164 143.668 17.9164C143.153 17.9164 142.647 17.8263 142.142 17.6443C141.64 17.4624 141.187 17.1903 140.791 16.8282C140.376 16.4823 140.045 16.0446 139.8 15.5167C139.551 14.9888 139.426 14.3529 139.426 13.6125V4.30569H139.428ZM141.956 13.6107C141.956 14.2214 142.126 14.67 142.465 14.96C142.805 15.2483 143.205 15.3924 143.668 15.3924C144.13 15.3924 144.533 15.2483 144.87 14.96C145.21 14.6718 145.379 14.2214 145.379 13.6107V4.30569C145.379 3.69497 145.21 3.24638 144.87 2.95633C144.531 2.66809 144.13 2.52396 143.668 2.52396C143.205 2.52396 142.803 2.66809 142.465 2.95633C142.126 3.24458 141.956 3.69497 141.956 4.30569V13.6107Z" fill="#343435"/>
<path d="M150.537 17.7683V0.14917H152.969L156.788 10.7657H156.839V0.14917H159.367V17.7683H156.985L153.119 7.17519H153.068V17.7683H150.537Z" fill="#343435"/>
<path d="M164.751 0.14917H162.219V17.7683H164.751V0.14917Z" fill="#343435"/>
<path d="M166.561 17.7683L170.504 0.14917H172.611L176.555 17.7683H174.027L173.281 13.9814H169.836L169.09 17.7683H166.562H166.561ZM172.808 11.607L171.568 5.22232H171.519L170.279 11.607H172.807H172.808Z" fill="#343435"/>
<path d="M178.193 17.7683V0.14917H180.625L184.444 10.7657H184.495V0.14917H187.023V17.7683H184.641L180.775 7.17519H180.724V17.7683H178.193Z" fill="#343435"/>
<path d="M83.3691 91.115V71.7791H91.6465V74.3859H86.1463V80.2517H90.9387V82.8586H86.1463V91.115H83.3691Z" fill="#343435"/>
<path d="M93.9868 91.1145V71.7786H102.262V74.3854H96.764V80.0603H101.556V82.6671H96.764V88.3438H102.262V91.1145H93.9868Z" fill="#343435"/>
<path d="M104.601 91.1145V71.7786H108.711C110.307 71.7786 111.519 72.2127 112.348 73.0829C113.173 73.9512 113.585 75.1835 113.585 76.7761V85.8198C113.585 87.6304 113.144 88.9671 112.265 89.8264C111.385 90.6858 110.12 91.1163 108.467 91.1163H104.601V91.1145ZM107.379 74.3854V88.5059H108.659C109.441 88.5059 109.991 88.3113 110.32 87.9222C110.645 87.5349 110.809 86.9223 110.809 86.09V76.7742C110.809 76.014 110.654 75.4249 110.344 75.0105C110.037 74.5926 109.473 74.3854 108.657 74.3854H107.377H107.379Z" fill="#343435"/>
<path d="M116.739 91.1145V71.7786H125.016V74.3854H119.516V80.0603H124.31V82.6671H119.516V88.3438H125.016V91.1145H116.739Z" fill="#343435"/>
<path d="M127.356 91.1145V71.7786H131.824C135.089 71.7786 136.721 73.6702 136.721 77.4534C136.721 78.5938 136.544 79.563 136.192 80.3593C135.838 81.1574 135.215 81.7988 134.325 82.287L137.319 91.1127H134.381L131.795 82.8563H130.134V91.1127H127.356V91.1145ZM130.134 74.3854V80.4152H131.712C132.205 80.4152 132.593 80.3467 132.884 80.2116C133.174 80.0747 133.402 79.8801 133.566 79.6279C133.709 79.3739 133.812 79.0622 133.864 78.6911C133.92 78.3218 133.947 77.8894 133.947 77.4012C133.947 76.913 133.918 76.4824 133.864 76.1113C133.812 75.7402 133.7 75.4177 133.539 75.1457C133.194 74.6394 132.541 74.3854 131.58 74.3854H130.135H130.134Z" fill="#343435"/>
<path d="M138.247 91.1145L142.575 71.7786H144.888L149.217 91.1145H146.443L145.625 86.9602H141.844L141.026 91.1145H138.252H138.247ZM145.103 84.3515L143.742 77.3453H143.689L142.328 84.3515H145.103Z" fill="#343435"/>
<path d="M151.449 91.1145V74.3854H148.238V71.7786H157.438V74.3854H154.224V91.1145H151.449Z" fill="#343435"/>
<path d="M162.066 71.7786H159.289V91.1145H162.066V71.7786Z" fill="#343435"/>
<path d="M165.141 76.3401C165.141 75.5618 165.279 74.8736 165.551 74.2755C165.82 73.6792 166.183 73.1802 166.64 72.7839C167.073 72.4037 167.57 72.1137 168.123 71.9155C168.677 71.7155 169.235 71.6165 169.796 71.6165C170.358 71.6165 170.918 71.7173 171.47 71.9155C172.025 72.1155 172.527 72.4037 172.984 72.7839C173.417 73.182 173.771 73.6792 174.044 74.2755C174.316 74.8736 174.453 75.5618 174.453 76.3401V86.5531C174.453 87.3656 174.316 88.0646 174.044 88.6429C173.771 89.2229 173.417 89.7022 172.984 90.0823C172.529 90.4804 172.027 90.7777 171.47 90.9777C170.918 91.1776 170.36 91.2767 169.796 91.2767C169.233 91.2767 168.677 91.1776 168.123 90.9777C167.57 90.7777 167.075 90.4804 166.64 90.0823C166.185 89.7022 165.822 89.2229 165.551 88.6429C165.279 88.0628 165.141 87.3656 165.141 86.5531V76.3401ZM167.917 86.5531C167.917 87.2232 168.103 87.7151 168.475 88.0321C168.847 88.3492 169.287 88.5077 169.795 88.5077C170.302 88.5077 170.743 88.3492 171.115 88.0321C171.487 87.7151 171.673 87.2214 171.673 86.5531V76.3401C171.673 75.6699 171.487 75.1781 171.115 74.861C170.743 74.544 170.302 74.3854 169.795 74.3854C169.287 74.3854 168.847 74.544 168.475 74.861C168.103 75.1781 167.917 75.6717 167.917 76.3401V86.5531Z" fill="#343435"/>
<path d="M177.333 91.1145V71.7786H180.002L184.193 83.4291H184.249V71.7786H187.023V91.1145H184.41L180.166 79.491H180.11V91.1145H177.333Z" fill="#343435"/>
<path d="M83.3691 63.5763V25.9529H91.475C92.9593 25.9529 94.2612 26.1456 95.3952 26.533C96.5238 26.9203 97.5476 27.6067 98.4649 28.5939C99.3822 29.5812 100.021 30.7324 100.372 32.0547C100.727 33.3752 100.903 35.166 100.903 37.4197C100.903 39.1114 100.807 40.5364 100.614 41.6984C100.415 42.8622 100.005 43.9557 99.366 44.9754C98.6238 46.2094 97.6343 47.1679 96.4046 47.8543C95.1677 48.5424 93.5389 48.8865 91.531 48.8865H88.7737V63.5763H83.3691ZM88.7737 31.026V43.8134H91.3667C92.4645 43.8134 93.3078 43.6531 93.9127 43.3378C94.5104 43.0189 94.9564 42.5793 95.2345 42.0172C95.518 41.4876 95.6859 40.8372 95.7419 40.0608C95.7961 39.2843 95.8196 38.4214 95.8196 37.4702C95.8196 36.591 95.8015 35.7551 95.7654 34.9606C95.7293 34.1697 95.5722 33.4743 95.2887 32.8726C95.0052 32.2745 94.5826 31.8169 94.0156 31.4998C93.4541 31.181 92.6397 31.0242 91.5851 31.0242H88.7737V31.026Z" fill="#343435"/>
<path d="M101.597 63.5763L110.017 25.9529H114.516L122.936 63.5763H117.537L115.945 55.491H108.586L106.994 63.5763H101.595H101.597ZM114.939 50.4178L112.292 36.7856H112.189L109.542 50.4178H114.941H114.939Z" fill="#343435"/>
<path d="M126.64 63.5763V25.9529H134.637C137.743 25.9529 140.101 26.7978 141.712 28.4895C143.317 30.1811 144.119 32.5754 144.119 35.674V53.2697C144.119 56.7935 143.263 59.3931 141.549 61.065C139.836 62.7386 137.375 63.5745 134.16 63.5745H126.64V63.5763ZM132.044 31.026V58.5032H134.536C136.056 58.5032 137.129 58.1249 137.768 57.3664C138.402 56.6116 138.722 55.4225 138.722 53.8012V35.6758C138.722 34.1949 138.42 33.0528 137.817 32.2421C137.219 31.4296 136.121 31.026 134.536 31.026H132.044Z" fill="#343435"/>
<path d="M150.26 63.5767V25.9551H166.365V31.0282H155.665V42.0699H164.989V47.143H155.665V58.1883H166.365V63.5767H150.26Z" fill="#343435"/>
<path d="M170.918 63.5767V25.9551H176.322V58.1883H187.023V63.5767H170.918Z" fill="#343435"/>
</svg>
