<svg width="123" height="60" viewBox="0 0 123 60" fill="none" xmlns="http://www.w3.org/2000/svg">
<g clip-path="url(#clip0_251_1259)">
<path d="M35.7683 32.9975C34.1766 32.9975 32.887 31.7078 32.887 30.1162C32.887 28.5245 34.1766 27.2349 35.7683 27.2349C37.3599 27.2349 38.6496 28.5245 38.6496 30.1162C38.6496 31.7078 37.3599 32.9975 35.7683 32.9975Z" fill="white"/>
<path d="M28.6152 25.5451C27.0235 25.5451 25.7339 24.2554 25.7339 22.6638C25.7339 21.0721 27.0235 19.7825 28.6152 19.7825C30.2068 19.7825 31.4965 21.0721 31.4965 22.6638C31.4965 24.2554 30.2068 25.5451 28.6152 25.5451Z" fill="white"/>
<path d="M20.7661 18.0934C19.1744 18.0934 17.8848 16.8038 17.8848 15.2121C17.8848 13.6205 19.1744 12.3308 20.7661 12.3308C22.3577 12.3308 23.6474 13.6205 23.6474 15.2121C23.6474 16.8038 22.3577 18.0934 20.7661 18.0934Z" fill="white"/>
<path d="M13.2141 10.5429C11.6224 10.5429 10.3328 9.25321 10.3328 7.66157C10.3328 6.06993 11.6224 4.78027 13.2141 4.78027C14.8057 4.78027 16.0954 6.06993 16.0954 7.66157C16.0954 9.25321 14.8057 10.5429 13.2141 10.5429Z" fill="white"/>
<path d="M28.6152 40.6479C27.0235 40.6479 25.7339 39.3582 25.7339 37.7666C25.7339 36.1749 27.0235 34.8853 28.6152 34.8853C30.2068 34.8853 31.4965 36.1749 31.4965 37.7666C31.4965 39.3582 30.2068 40.6479 28.6152 40.6479Z" fill="white"/>
<path d="M20.7661 48.099C19.1744 48.099 17.8848 46.8094 17.8848 45.2177C17.8848 43.6261 19.1744 42.3364 20.7661 42.3364C22.3577 42.3364 23.6474 43.6261 23.6474 45.2177C23.6474 46.8094 22.3577 48.099 20.7661 48.099Z" fill="white"/>
<path d="M13.2141 55.4518C11.6224 55.4518 10.3328 54.1622 10.3328 52.5705C10.3328 50.9789 11.6224 49.6892 13.2141 49.6892C14.8057 49.6892 16.0954 50.9789 16.0954 52.5705C16.0954 54.1622 14.8057 55.4518 13.2141 55.4518Z" fill="white"/>
<path d="M20.7659 33.9907C18.6259 33.9907 16.891 32.2558 16.891 30.1159C16.891 27.9759 18.6259 26.241 20.7659 26.241C22.9058 26.241 24.6408 27.9759 24.6408 30.1159C24.6408 32.2558 22.9058 33.9907 20.7659 33.9907Z" fill="white"/>
<path d="M4.76901 34.8852C2.13522 34.8852 0 32.75 0 30.1162C0 27.4824 2.13522 25.3472 4.76901 25.3472C7.40279 25.3472 9.53801 27.4824 9.53801 30.1162C9.53801 32.75 7.40279 34.8852 4.76901 34.8852Z" fill="#F82428"/>
<path d="M13.2138 26.5386C11.0738 26.5386 9.33887 24.8037 9.33887 22.6637C9.33887 20.5238 11.0738 18.7888 13.2138 18.7888C15.3537 18.7888 17.0886 20.5238 17.0886 22.6637C17.0886 24.8037 15.3537 26.5386 13.2138 26.5386Z" fill="white"/>
<path d="M5.6631 19.0872C3.52315 19.0872 1.78821 17.3522 1.78821 15.2123C1.78821 13.0723 3.52315 11.3374 5.6631 11.3374C7.80305 11.3374 9.53799 13.0723 9.53799 15.2123C9.53799 17.3522 7.80305 19.0872 5.6631 19.0872Z" fill="white"/>
<path d="M5.6631 49.0926C3.52315 49.0926 1.78821 47.3576 1.78821 45.2177C1.78821 43.0777 3.52315 41.3428 5.6631 41.3428C7.80305 41.3428 9.53799 43.0777 9.53799 45.2177C9.53799 47.3576 7.80305 49.0926 5.6631 49.0926Z" fill="white"/>
<path d="M13.2138 41.6411C11.0738 41.6411 9.33887 39.9062 9.33887 37.7662C9.33887 35.6263 11.0738 33.8914 13.2138 33.8914C15.3537 33.8914 17.0886 35.6263 17.0886 37.7662C17.0886 39.9062 15.3537 41.6411 13.2138 41.6411Z" fill="white"/>
<path d="M25.7338 59.8944C25.1772 59.8944 24.6455 59.5735 24.4051 59.0323C24.0782 58.298 24.4074 57.4383 25.1405 57.1114C35.7834 52.3625 42.6592 41.767 42.6592 30.1163C42.6592 18.4655 35.5762 7.52891 24.6147 2.89254C23.8745 2.57989 23.5287 1.72604 23.8413 0.985883C24.154 0.245722 25.0078 -0.100081 25.748 0.212563C31.5509 2.66634 36.4869 6.7319 40.0254 11.9687C43.6516 17.3369 45.5689 23.6111 45.5689 30.1151C45.5689 42.9122 38.0157 54.551 26.3259 59.7665C26.1329 59.853 25.9316 59.8932 25.7338 59.8932" fill="#FCBF4E"/>
<path d="M54.0706 11.6797V0.0976562H55.6658L57.7962 6.23093H57.8294L59.9433 0.0976562H61.5551V11.6797H59.8947V4.63573H59.8639L58.2202 9.61435H57.39L55.764 4.63573H55.7309V11.6797H54.0706Z" fill="white"/>
<path d="M62.6943 11.6795L65.2796 0.0974121H66.6616L69.248 11.6795H67.5901L67.101 9.19014H64.8414L64.3523 11.6795H62.6943ZM66.7919 7.62929L65.9783 3.43228H65.9463L65.1327 7.62929H66.7907H66.7919Z" fill="white"/>
<path d="M75.6589 8.37671V9.09318C75.6589 9.45083 75.5902 9.78953 75.4552 10.1093C75.3202 10.4302 75.1331 10.7144 74.8939 10.9631C74.6546 11.213 74.3752 11.4108 74.0566 11.5564C73.7357 11.7033 73.391 11.7755 73.0227 11.7755C72.7077 11.7755 72.3892 11.7317 72.0635 11.6453C71.7378 11.5576 71.4453 11.406 71.1859 11.1893C70.9242 10.9726 70.7122 10.6931 70.5429 10.352C70.3747 10.0098 70.2906 9.57399 70.2906 9.04226V2.6674C70.2906 2.28725 70.3558 1.93434 70.4849 1.60986C70.6151 1.28419 70.7999 1.00233 71.0391 0.764298C71.276 0.525078 71.5614 0.337965 71.893 0.20296C72.2222 0.0679545 72.5893 -0.000732422 72.9896 -0.000732422C73.7712 -0.000732422 74.4048 0.255067 74.8939 0.764298C75.1331 1.01299 75.3202 1.30906 75.4552 1.65131C75.5902 1.99356 75.6589 2.36423 75.6589 2.76569V3.41585H73.9986V2.8628C73.9986 2.53713 73.9062 2.25646 73.7226 2.01724C73.5379 1.77921 73.2868 1.6596 72.9742 1.6596C72.5609 1.6596 72.2873 1.78631 72.1511 2.04093C72.0161 2.29673 71.9474 2.61885 71.9474 3.00847V8.92976C71.9474 9.26609 72.0209 9.54794 72.1677 9.77532C72.3146 10.0027 72.5775 10.1176 72.9564 10.1176C73.0642 10.1176 73.1802 10.0986 73.307 10.0607C73.4313 10.0228 73.5474 9.96006 73.6551 9.87361C73.7534 9.78597 73.8351 9.66755 73.8991 9.51478C73.9642 9.36319 73.9974 9.17253 73.9974 8.94634V8.37671H75.6577H75.6589Z" fill="white"/>
<path d="M77.3334 11.6795V0.0974121H82.2788V1.65945H78.9925V5.05827H81.8572V6.6203H78.9925V10.0203H82.2788V11.6795H77.3334Z" fill="white"/>
<path d="M83.676 11.6795V0.0974121H86.1322C87.0867 0.0974121 87.8103 0.357949 88.3053 0.877838C88.7979 1.39891 89.0443 2.13552 89.0443 3.09003V8.50683C89.0443 9.59161 88.7814 10.3922 88.2555 10.9073C87.7297 11.4225 86.9742 11.6795 85.9865 11.6795H83.676ZM85.3364 1.65945V10.1186H86.1014C86.568 10.1186 86.8984 10.0014 87.095 9.76806C87.2892 9.53594 87.3875 9.17001 87.3875 8.67025V3.09003C87.3875 2.63409 87.2951 2.28237 87.1092 2.03367C86.9256 1.78379 86.5881 1.65945 86.1014 1.65945H85.3364Z" fill="white"/>
<path d="M90.836 2.82964C90.836 2.36423 90.9177 1.95211 91.0812 1.59328C91.2422 1.23563 91.4589 0.9372 91.7313 0.699164C91.9907 0.471786 92.2867 0.297701 92.6171 0.17809C92.9476 0.0596647 93.2815 -0.000732422 93.6167 -0.000732422C93.9518 -0.000732422 94.287 0.0596647 94.6174 0.179275C94.949 0.298885 95.2486 0.471786 95.5209 0.700348C95.7803 0.938384 95.9911 1.23682 96.1545 1.59446C96.3179 1.95329 96.3997 2.36541 96.3997 2.83083V8.94752C96.3997 9.43425 96.3179 9.85229 96.1545 10.1993C95.9911 10.5463 95.7803 10.834 95.5209 11.0614C95.2486 11.2995 94.949 11.4783 94.6174 11.5979C94.2881 11.7175 93.9542 11.7767 93.6167 11.7767C93.2791 11.7767 92.9476 11.7175 92.616 11.5979C92.2867 11.4783 91.9895 11.2995 91.7301 11.0614C91.4578 10.834 91.241 10.5463 91.08 10.1993C90.9166 9.85229 90.8348 9.43425 90.8348 8.94752V2.82964H90.836ZM92.494 8.94633C92.494 9.3478 92.6053 9.64268 92.8279 9.83334C93.0506 10.0228 93.3135 10.1176 93.6167 10.1176C93.9198 10.1176 94.1839 10.0228 94.4054 9.83334C94.628 9.64386 94.7393 9.3478 94.7393 8.94633V2.82964C94.7393 2.42818 94.628 2.1333 94.4054 1.94263C94.1827 1.75315 93.9198 1.65841 93.6167 1.65841C93.3135 1.65841 93.0494 1.75315 92.8279 1.94263C92.6053 2.13212 92.494 2.42818 92.494 2.82964V8.94633Z" fill="white"/>
<path d="M98.1216 11.6795V0.0974121H99.7168L102.221 7.07624H102.255V0.0974121H103.913V11.6795H102.351L99.8151 4.71602H99.7819V11.6795H98.1216Z" fill="white"/>
<path d="M107.444 0.0974121H105.784V11.6795H107.444V0.0974121Z" fill="white"/>
<path d="M108.631 11.6795L111.217 0.0974121H112.599L115.185 11.6795H113.528L113.038 9.19014H110.779L110.29 11.6795H108.632H108.631ZM112.728 7.62929L111.915 3.43228H111.883L111.069 7.62929H112.727H112.728Z" fill="white"/>
<path d="M116.26 11.6795V0.0974121H117.855L120.359 7.07624H120.393V0.0974121H122.051V11.6795H120.489L117.953 4.71602H117.92V11.6795H116.26Z" fill="white"/>
<path d="M54.0706 59.8945V47.1838H59.4992V48.8975H55.8919V52.7534H59.035V54.467H55.8919V59.8945H54.0706Z" fill="white"/>
<path d="M61.0342 59.894V47.1833H66.4616V48.897H62.8556V52.6274H65.9986V54.341H62.8556V58.0726H66.4616V59.894H61.0342Z" fill="white"/>
<path d="M67.9956 59.894V47.1833H70.691C71.7379 47.1833 72.5325 47.4688 73.0761 48.0408C73.6173 48.6116 73.8873 49.4216 73.8873 50.4685V56.4135C73.8873 57.6036 73.5983 58.4824 73.0216 59.0472C72.4449 59.6121 71.6147 59.8952 70.5311 59.8952H67.9956V59.894ZM69.817 48.897V58.1792H70.6566C71.1694 58.1792 71.5306 58.0513 71.7462 57.7955C71.9593 57.5409 72.0671 57.1382 72.0671 56.5911V50.4673C72.0671 49.9675 71.9652 49.5803 71.7616 49.3079C71.5602 49.0332 71.1907 48.897 70.6555 48.897H69.8158H69.817Z" fill="white"/>
<path d="M75.9557 59.894V47.1833H81.3843V48.897H77.7771V52.6274H80.9213V54.341H77.7771V58.0726H81.3843V59.894H75.9557Z" fill="white"/>
<path d="M82.9193 59.894V47.1833H85.8492C87.9903 47.1833 89.0609 48.4268 89.0609 50.9138C89.0609 51.6634 88.9448 52.3005 88.7139 52.824C88.4818 53.3486 88.0732 53.7702 87.4894 54.0911L89.4529 59.8928H87.5261L85.8302 54.4654H84.7407V59.8928H82.9193V59.894ZM84.7407 48.897V52.8607H85.7757C86.099 52.8607 86.3537 52.8157 86.5443 52.7269C86.735 52.6369 86.8842 52.509 86.992 52.3432C87.0855 52.1762 87.153 51.9713 87.1874 51.7273C87.2241 51.4846 87.2419 51.2004 87.2419 50.8794C87.2419 50.5585 87.2229 50.2754 87.1874 50.0315C87.153 49.7875 87.0796 49.5756 86.9742 49.3967C86.748 49.064 86.3193 48.897 85.6893 48.897H84.7419H84.7407Z" fill="white"/>
<path d="M90.0615 59.894L92.9002 47.1833H94.4172L97.2559 59.894H95.4369L94.9004 57.1631H92.4206L91.8841 59.894H90.0651H90.0615ZM94.5582 55.4483L93.6652 50.8427H93.6309L92.738 55.4483H94.5582Z" fill="white"/>
<path d="M98.7197 59.894V48.897H96.6141V47.1833H102.648V48.897H100.54V59.894H98.7197Z" fill="white"/>
<path d="M105.683 47.1833H103.862V59.894H105.683V47.1833Z" fill="white"/>
<path d="M107.7 50.182C107.7 49.6704 107.79 49.218 107.969 48.8249C108.145 48.4329 108.383 48.1048 108.683 47.8443C108.967 47.5944 109.293 47.4038 109.655 47.2735C110.019 47.142 110.385 47.0769 110.753 47.0769C111.121 47.0769 111.488 47.1432 111.851 47.2735C112.214 47.4049 112.544 47.5944 112.843 47.8443C113.127 48.106 113.36 48.4329 113.538 48.8249C113.717 49.218 113.807 49.6704 113.807 50.182V56.8956C113.807 57.4297 113.717 57.8892 113.538 58.2693C113.36 58.6507 113.127 58.9657 112.843 59.2155C112.545 59.4773 112.216 59.6727 111.851 59.8041C111.488 59.9356 111.122 60.0007 110.753 60.0007C110.383 60.0007 110.019 59.9356 109.655 59.8041C109.293 59.6727 108.968 59.4773 108.683 59.2155C108.384 58.9657 108.146 58.6507 107.969 58.2693C107.79 57.888 107.7 57.4297 107.7 56.8956V50.182ZM109.52 56.8956C109.52 57.3361 109.642 57.6594 109.886 57.8679C110.13 58.0763 110.419 58.1805 110.752 58.1805C111.085 58.1805 111.374 58.0763 111.617 57.8679C111.861 57.6594 111.983 57.3349 111.983 56.8956V50.182C111.983 49.7415 111.861 49.4182 111.617 49.2098C111.374 49.0013 111.085 48.8971 110.752 48.8971C110.419 48.8971 110.13 49.0013 109.886 49.2098C109.642 49.4182 109.52 49.7427 109.52 50.182V56.8956Z" fill="white"/>
<path d="M115.696 59.894V47.1833H117.446L120.195 54.8419H120.232V47.1833H122.051V59.894H120.337L117.554 52.2532H117.517V59.894H115.696Z" fill="white"/>
<path d="M54.0706 41.7916V17.0596H59.3867C60.3602 17.0596 61.214 17.1863 61.9577 17.4409C62.6979 17.6955 63.3693 18.1467 63.971 18.7957C64.5726 19.4447 64.9918 20.2014 65.2215 21.0707C65.4548 21.9387 65.5697 23.1159 65.5697 24.5974C65.5697 25.7094 65.5069 26.6461 65.3802 27.41C65.25 28.175 64.9811 28.8939 64.5619 29.5641C64.0752 30.3754 63.4262 31.0054 62.6197 31.4566C61.8085 31.909 60.7403 32.1352 59.4234 32.1352H57.615V41.7916H54.0706ZM57.615 20.3944V28.8003H59.3156C60.0357 28.8003 60.5887 28.6949 60.9854 28.4877C61.3774 28.278 61.6699 27.9891 61.8523 27.6196C62.0382 27.2714 62.1484 26.8439 62.1851 26.3335C62.2206 25.8231 62.236 25.2558 62.236 24.6305C62.236 24.0526 62.2242 23.5031 62.2005 22.9809C62.1768 22.461 62.0738 22.0038 61.8878 21.6083C61.7019 21.2151 61.4248 20.9143 61.0529 20.7059C60.6846 20.4963 60.1505 20.3933 59.4589 20.3933H57.615V20.3944Z" fill="white"/>
<path d="M66.0249 41.7916L71.5471 17.0596H74.4982L80.0204 41.7916H76.4795L75.435 36.4767H70.6091L69.5646 41.7916H66.0237H66.0249ZM74.7753 33.1418L73.0392 24.1805H72.9717L71.2356 33.1418H74.7765H74.7753Z" fill="white"/>
<path d="M82.4491 41.7916V17.0596H87.6942C89.7311 17.0596 91.2777 17.615 92.3341 18.727C93.3869 19.839 93.9127 21.4129 93.9127 23.4498V35.0165C93.9127 37.3329 93.3514 39.0418 92.2275 40.1408C91.1037 41.2409 89.4895 41.7904 87.3815 41.7904H82.4491V41.7916ZM85.9936 20.3944V38.4567H87.6279C88.625 38.4567 89.3284 38.208 89.7477 37.7095C90.1634 37.2133 90.373 36.4317 90.373 35.3658V23.451C90.373 22.4776 90.1752 21.7267 89.7796 21.1938C89.3877 20.6597 88.6676 20.3944 87.6279 20.3944H85.9936Z" fill="white"/>
<path d="M97.9403 41.7919V17.061H108.503V20.3959H101.485V27.6542H107.6V30.9891H101.485V38.2498H108.503V41.7919H97.9403Z" fill="white"/>
<path d="M111.488 41.7919V17.061H115.033V38.2498H122.051V41.7919H111.488Z" fill="white"/>
</g>
<defs>
<clipPath id="clip0_251_1259">
<rect width="122.051" height="60.0016" fill="white" transform="translate(0 -0.000732422)"/>
</clipPath>
</defs>
</svg>
